<?xml version="1.0" standalone="no"?>
<!DOCTYPE svg PUBLIC "-//W3C//DTD SVG 20010904//EN"
 "http://www.w3.org/TR/2001/REC-SVG-20010904/DTD/svg10.dtd">
<svg version="1.0" xmlns="http://www.w3.org/2000/svg"
 width="512.000000pt" height="512.000000pt" viewBox="0 0 512.000000 512.000000"
 preserveAspectRatio="xMidYMid meet">
<metadata>
Created by potrace 1.11, written by Peter Selinger 2001-2013
</metadata>
<g transform="translate(0.000000,512.000000) scale(0.100000,-0.100000)"
fill="#000000" stroke="none">
<path d="M2369 5116 c-2 -2 -35 -7 -74 -10 -38 -3 -81 -8 -95 -11 -14 -2 -52
-9 -85 -15 -33 -5 -73 -13 -90 -15 -16 -3 -38 -8 -47 -11 -10 -3 -28 -7 -40
-9 -13 -3 -61 -16 -107 -30 -401 -120 -770 -338 -1067 -632 -366 -363 -611
-813 -713 -1313 -19 -93 -23 -115 -38 -250 -10 -83 -9 -455 1 -540 11 -99 26
-186 50 -295 42 -197 141 -455 246 -647 354 -642 950 -1099 1655 -1268 66 -15
143 -31 170 -35 28 -4 61 -9 75 -11 79 -13 176 -19 345 -19 239 0 376 14 565
57 593 134 1107 465 1481 953 110 143 249 381 308 525 12 30 26 64 32 75 51
109 134 424 155 590 3 28 8 61 10 75 9 49 12 457 4 525 -16 133 -20 160 -36
240 -180 916 -830 1653 -1719 1950 -66 22 -243 68 -304 80 -22 4 -90 14 -131
20 -19 3 -53 7 -75 11 -44 6 -470 15 -476 10z m487 -181 c29 -3 62 -8 75 -10
13 -3 41 -7 64 -10 75 -11 372 -93 363 -100 -2 -1 -74 -5 -161 -9 -88 -3 -162
-8 -165 -10 -4 -2 -34 -7 -66 -11 -88 -10 -307 -67 -421 -110 -251 -94 -504
-241 -735 -425 -98 -79 -345 -317 -419 -404 -31 -37 -34 -38 -77 -31 -103 15
-317 80 -416 126 l-28 12 27 36 c49 65 86 105 198 216 199 199 438 359 745
498 206 94 602 206 820 232 30 4 56 8 58 10 3 3 61 -1 138 -10z m-839 -51 c-3
-3 -12 -4 -19 -1 -8 3 -5 6 6 6 11 1 17 -2 13 -5z m-52 -14 c-11 -5 -81 -35
-155 -66 -130 -56 -162 -71 -280 -137 -256 -143 -529 -371 -680 -567 -19 -24
-43 -53 -52 -64 -10 -11 -18 -24 -18 -28 0 -7 -75 25 -89 38 -7 7 100 127 204
230 273 267 605 462 985 580 75 23 124 31 85 14z m1445 -174 c52 -3 104 -8
115 -10 11 -2 60 -11 109 -21 103 -19 134 -33 265 -122 84 -57 251 -189 251
-198 0 -1 -18 1 -40 6 -22 5 -57 12 -78 15 -20 3 -40 8 -44 10 -27 17 -418 24
-564 11 -223 -21 -508 -96 -729 -193 -174 -76 -343 -185 -443 -283 -42 -42
-84 -57 -244 -90 -142 -30 -378 -45 -483 -31 l-40 5 130 131 c109 110 231 218
346 307 74 58 267 178 363 226 178 91 304 140 466 181 93 24 95 24 160 35 25
4 54 9 65 11 11 2 67 7 125 10 58 4 106 8 108 9 1 1 17 1 35 -1 17 -1 75 -5
127 -8z m504 -419 c33 -5 74 -47 167 -168 229 -301 400 -707 459 -1089 6 -41
14 -86 16 -100 19 -109 25 -468 11 -625 -11 -119 -21 -199 -37 -280 -5 -27
-11 -61 -14 -75 -18 -111 -91 -358 -150 -509 -132 -339 -359 -678 -578 -862
-58 -49 -85 -54 -318 -54 -209 0 -353 16 -484 53 l-29 8 58 59 c280 291 497
702 609 1154 36 144 61 277 72 376 4 33 8 69 10 79 6 36 17 240 17 336 0 93
-11 325 -18 358 -1 9 -6 44 -9 77 -26 235 -122 557 -228 769 -72 144 -184 303
-274 389 -24 23 -44 45 -44 48 0 6 79 25 145 35 22 3 51 7 65 9 14 3 57 7 95
11 39 3 71 7 73 9 4 4 354 -4 386 -8z m312 -68 c104 -33 103 -32 212 -168 174
-216 333 -522 421 -813 27 -91 68 -288 76 -368 3 -36 8 -83 11 -105 8 -58 7
-309 -1 -395 -4 -41 -9 -86 -10 -100 -2 -23 -14 -96 -20 -130 -80 -401 -241
-754 -486 -1062 -74 -95 -317 -343 -326 -334 -3 3 15 31 39 63 241 321 433
797 503 1253 3 19 7 46 10 60 2 14 6 50 9 80 3 30 8 89 12 130 13 141 6 503
-11 591 -3 13 -7 46 -10 73 -19 175 -101 468 -190 676 -43 100 -138 284 -168
324 -4 6 -31 46 -60 89 -28 42 -67 97 -85 122 -18 25 -31 45 -28 45 3 0 49
-14 102 -31z m-1166 -56 c303 -260 508 -759 547 -1333 12 -176 6 -513 -11
-606 -2 -11 -7 -41 -10 -69 -12 -81 -16 -105 -37 -205 -47 -224 -103 -400
-189 -593 -123 -273 -301 -529 -498 -711 l-31 -29 -76 27 c-81 29 -190 78
-265 120 -58 33 -198 137 -204 153 -3 6 12 33 33 60 84 105 195 285 266 428
66 135 166 403 178 480 3 17 9 48 15 70 11 39 15 65 28 155 3 25 8 56 11 70 3
14 7 122 8 240 3 217 -7 337 -40 455 -7 28 -25 93 -39 145 -30 109 -75 241
-88 255 -4 5 -8 15 -8 23 0 22 -109 232 -167 322 -49 76 -112 157 -152 200
-12 12 -7 20 35 58 89 81 262 185 384 232 30 11 64 25 75 31 24 12 166 58 181
59 6 0 30 -17 54 -37z m-2318 -256 c176 -96 375 -162 573 -192 146 -22 191
-25 330 -26 125 0 198 5 300 21 98 16 116 20 199 42 l79 21 25 -29 c59 -71
170 -249 223 -359 61 -127 136 -336 141 -395 l3 -35 -130 -32 c-71 -18 -148
-34 -170 -37 -22 -4 -51 -8 -65 -11 -14 -3 -45 -7 -70 -10 -25 -3 -59 -8 -76
-10 -191 -26 -724 -26 -909 0 -16 2 -73 9 -125 16 -79 9 -192 29 -370 65 -154
31 -470 150 -470 176 1 62 109 365 183 513 80 161 199 350 215 343 4 -2 55
-29 114 -61z m-489 -935 c211 -93 484 -164 797 -206 496 -68 1014 -51 1425 45
72 17 140 33 151 36 20 4 23 -1 29 -49 4 -29 9 -61 11 -71 25 -134 24 -481 -2
-647 -13 -82 -47 -240 -66 -308 -16 -56 -26 -73 -42 -77 -113 -26 -209 -45
-248 -49 -26 -3 -78 -10 -116 -16 -235 -33 -800 -36 -1047 -5 -309 39 -558 96
-761 176 -84 33 -104 45 -113 67 -24 62 -74 290 -85 392 -3 25 -8 72 -12 105
-8 74 -8 343 0 410 3 28 9 73 12 100 3 28 7 59 9 70 2 11 4 26 4 33 1 16 4 15
54 -6z m173 -1302 c80 -28 329 -93 404 -105 19 -3 60 -10 90 -15 76 -12 121
-19 182 -26 29 -3 64 -7 78 -10 69 -11 269 -19 485 -19 279 0 376 7 625 40 30
5 148 26 218 39 12 3 22 2 22 -2 0 -4 -33 -74 -74 -157 -74 -150 -175 -310
-257 -409 -42 -51 -48 -54 -159 -89 -117 -36 -184 -53 -255 -63 -22 -3 -47 -7
-55 -9 -87 -22 -522 -22 -662 0 -12 2 -62 9 -110 15 l-87 12 -69 76 c-128 142
-195 230 -279 367 -81 130 -204 385 -187 385 3 0 43 -13 90 -30z m1819 -863
c77 -72 316 -210 430 -248 22 -7 45 -16 50 -20 22 -14 216 -69 295 -83 19 -3
44 -8 55 -10 123 -24 255 -36 405 -37 l105 0 -60 -28 c-93 -44 -314 -121 -389
-135 -11 -3 -55 -12 -96 -21 -110 -24 -190 -21 -379 16 -225 44 -483 151 -691
287 -115 75 -260 188 -260 203 0 5 10 9 23 9 73 2 301 55 392 92 65 26 65 26
120 -25z m-905 -84 l225 -6 25 -26 c14 -14 55 -51 90 -81 36 -30 67 -58 70
-62 3 -4 63 -45 133 -92 140 -94 321 -187 467 -241 l95 -35 -77 6 c-43 3 -88
7 -100 9 -13 2 -44 6 -69 9 -380 52 -797 233 -1119 486 l-65 51 50 -6 c28 -3
151 -8 275 -12z"/>
</g>
</svg>
